<?xml version="1.0" encoding="utf-8"?>
<!-- Generator: Adobe Illustrator 15.0.0, SVG Export Plug-In  -->
<!DOCTYPE svg PUBLIC "-//W3C//DTD SVG 1.1//EN" "http://www.w3.org/Graphics/SVG/1.1/DTD/svg11.dtd" [
	<!ENTITY ns_flows "http://ns.adobe.com/Flows/1.0/">
]>
<svg version="1.1"
	 xmlns="http://www.w3.org/2000/svg" xmlns:xlink="http://www.w3.org/1999/xlink" xmlns:a="http://ns.adobe.com/AdobeSVGViewerExtensions/3.0/"
	 x="0px" y="0px" width="292px" height="50px" viewBox="-14.479 -4.251 292 50" enable-background="new -14.479 -4.251 292 50"
	 xml:space="preserve">
<defs>
</defs>
<path fill="#FFFFFF" d="M174.226,28.295c0-7.835,5.056-10.071,8.653-10.071v8.073l11.5-12.347l-11.5-12.5v8.693
	c-8.922,0-16.153,7.232-16.153,16.153c0,8.922,7.231,16.152,16.153,16.152c0.68,0,1.346-0.055,2.004-0.137
	C178.861,41.461,174.226,34.551,174.226,28.295z"/>
<path fill="#FFFFFF" d="M140.998,36.539l-12.804-12.805c1.389-2.013,2.206-4.452,2.206-7.083c0-6.903-5.597-12.5-12.5-12.5
	s-12.5,5.597-12.5,12.5s5.597,12.499,12.5,12.499c2.631,0,5.069-0.816,7.083-2.205l12.804,12.803L140.998,36.539z M107.9,16.651
	c0-5.522,4.478-10,10-10s10,4.478,10,10c0,5.523-4.478,9.999-10,9.999S107.9,22.174,107.9,16.651z"/>
<path fill="#FFFFFF" d="M254.488,23.542h-10.834v10.834h-4.569V23.542h-10.859v-4.515h10.859V8.167h4.569v10.86h10.834V23.542z"/>
<path fill="#FFFFFF" d="M241.356,42.499c-11.718,0-21.25-9.531-21.25-21.249c0-11.717,9.532-21.25,21.25-21.25
	s21.25,9.533,21.25,21.25C262.606,32.968,253.074,42.499,241.356,42.499z M241.356,2.5c-10.339,0-18.75,8.411-18.75,18.75
	s8.411,18.749,18.75,18.749s18.75-8.41,18.75-18.749S251.695,2.5,241.356,2.5z"/>
<polygon fill="#FFFFFF" points="61.196,23.622 58.898,23.622 48.17,23.622 48.17,26.589 58.898,26.589 61.196,26.589 79.673,26.589 
	79.673,23.622 "/>
<polygon fill="#FFFFFF" points="61.196,16.51 58.898,16.51 48.17,16.51 48.17,19.477 58.898,19.477 61.196,19.477 79.673,19.477 
	79.673,16.51 "/>
<polygon fill="#FFFFFF" points="61.196,9.397 58.898,9.397 48.17,9.397 48.17,12.364 58.898,12.364 61.196,12.364 79.673,12.364 
	79.673,9.397 "/>
<polygon fill="#FFFFFF" points="61.196,30.735 58.898,30.735 48.17,30.735 48.17,33.702 58.898,33.702 61.196,33.702 79.673,33.702 
	79.673,30.735 "/>
<polygon fill="#94D1D6" points="13.7,24.459 19.871,24.459 19.871,10.759 0,10.759 0,31.048 13.7,31.048 "/>
<rect x="14.913" y="25.609" fill="#94D1D6" width="7.53" height="7.53"/>
</svg>
