<?xml version="1.0" encoding="utf-8"?>
<!-- Generator: Adobe Illustrator 15.0.0, SVG Export Plug-In  -->
<!DOCTYPE svg PUBLIC "-//W3C//DTD SVG 1.1//EN" "http://www.w3.org/Graphics/SVG/1.1/DTD/svg11.dtd" [
	<!ENTITY ns_flows "http://ns.adobe.com/Flows/1.0/">
]>
<svg version="1.1"
	 xmlns="http://www.w3.org/2000/svg" xmlns:xlink="http://www.w3.org/1999/xlink" xmlns:a="http://ns.adobe.com/AdobeSVGViewerExtensions/3.0/"
	 x="0px" y="0px" width="180px" height="45px" viewBox="-11.533 -10.449 180 45" enable-background="new -11.533 -10.449 180 45"
	 xml:space="preserve">
<defs>
</defs>
<g>
	<g>
		<path fill-rule="evenodd" clip-rule="evenodd" fill="#909090" d="M148.1,5.028c0.766,0.237,1.502,0.503,2.111,0.898
			c0.34-0.146,0.688-0.365,1.121-0.584c0.369-0.186,0.842-0.496,1.258-0.449c0.371,0.042,0.621,0.442,0.854,0.673
			c0.229,0.229,0.639,0.461,0.672,0.854c0.039,0.428-0.316,0.819-0.492,1.167C153.415,8,153.29,8.352,153.084,8.71
			c0.301,0.687,0.652,1.322,0.852,2.11c0.359,0.212,0.822,0.289,1.303,0.449c0.404,0.133,1.01,0.288,1.17,0.583
			c0.193,0.362,0.145,1.782-0.047,2.065c-0.359,0.533-1.844,0.604-2.426,0.943c-0.199,0.771-0.492,1.453-0.852,2.066
			c0.158,0.345,0.324,0.738,0.539,1.166c0.184,0.368,0.518,0.757,0.492,1.168c-0.021,0.392-0.441,0.668-0.672,0.898
			c-0.221,0.221-0.453,0.631-0.854,0.674c-0.461,0.05-0.834-0.305-1.213-0.494c-0.396-0.199-0.766-0.336-1.123-0.539
			c-0.656,0.332-1.309,0.667-2.109,0.854c-0.102,0.342-0.295,0.793-0.449,1.257c-0.137,0.411-0.203,0.968-0.494,1.168
			c-0.32,0.22-1.766,0.275-2.154,0c-0.281-0.2-0.365-0.772-0.494-1.168c-0.156-0.468-0.32-0.822-0.404-1.257
			c-0.818-0.172-1.479-0.498-2.109-0.854c-0.324,0.188-0.699,0.325-1.123,0.539c-0.354,0.177-0.74,0.512-1.168,0.494
			c-0.43-0.018-0.67-0.402-0.943-0.674c-0.24-0.24-0.652-0.477-0.674-0.898c-0.02-0.396,0.32-0.814,0.494-1.168
			c0.193-0.394,0.389-0.732,0.539-1.121c-0.277-0.68-0.67-1.245-0.809-2.066c-0.379-0.176-0.84-0.294-1.303-0.449
			c-0.412-0.139-0.975-0.25-1.166-0.539c-0.238-0.354-0.25-1.728,0-2.11c0.35-0.54,1.846-0.598,2.424-0.943
			c0.213-0.775,0.52-1.457,0.854-2.11c-0.15-0.389-0.346-0.729-0.539-1.123c-0.174-0.352-0.51-0.771-0.494-1.167
			c0.018-0.378,0.395-0.665,0.629-0.898c0.219-0.219,0.533-0.624,0.854-0.673c0.439-0.067,0.885,0.265,1.258,0.449
			c0.439,0.218,0.822,0.396,1.121,0.584c0.66-0.328,1.295-0.683,2.109-0.854c0.387-0.625,0.43-2.383,1.258-2.559
			c0.322-0.069,1.381-0.087,1.707,0.044C147.711,2.819,147.75,4.378,148.1,5.028z M144.733,9.069
			c-1.414,0.5-2.605,1.873-2.605,3.772c0,1.175,0.516,2.176,1.168,2.829c2.299,2.299,6.824,0.941,6.824-2.829
			c0-0.808-0.316-1.664-0.672-2.201c-0.713-1.074-1.926-1.934-3.684-1.751C145.401,8.927,144.997,8.975,144.733,9.069z"/>
	</g>
</g>
<g>
	<g>
		<polygon fill="#FFD57F" points="51.235,22.204 43.958,24.512 46.254,17.224 		"/>
		<g>
			
				<rect x="47.149" y="8.872" transform="matrix(0.7071 -0.7071 0.7071 0.7071 7.6605 43.2832)" fill="#FFD57F" width="17.866" height="7.043"/>
			<path fill="#FFD57F" d="M67.325,4.321l-3.17-3.17c-0.498-0.498-1.313-0.498-1.811,0l-1.46,1.459l4.98,4.98l1.46-1.459
				C67.823,5.634,67.823,4.819,67.325,4.321z"/>
		</g>
	</g>
</g>
<g>
	<g>
		<g>
			<path fill="#EF8262" d="M21.765,5.4l-7.662,7.661l7.662,7.661l-3.231,3.23l-7.661-7.661l-7.679,7.679l-3.192-3.192L7.68,13.1
				L0,5.42l3.231-3.231l7.68,7.679l7.66-7.661L21.765,5.4z"/>
		</g>
	</g>
</g>
<path fill="#94D1D6" d="M114.671,24.199l-9.566-9.567c1.037-1.504,1.648-3.326,1.648-5.292c0-5.158-4.182-9.34-9.34-9.34
	s-9.34,4.182-9.34,9.34c0,5.157,4.182,9.339,9.34,9.339c1.967,0,3.787-0.609,5.291-1.647l9.568,9.565L114.671,24.199z M89.943,9.34
	c0-4.126,3.344-7.472,7.471-7.472c4.125,0,7.473,3.345,7.473,7.472s-3.348,7.471-7.473,7.471
	C93.287,16.811,89.943,13.466,89.943,9.34z"/>
<polygon fill="#94D1D6" points="96.638,13.407 96.638,10.124 93.355,10.124 93.355,8.563 96.638,8.563 96.638,5.279 98.201,5.279 
	98.201,8.563 101.484,8.563 101.484,10.124 98.201,10.124 98.201,13.407 "/>
</svg>
