<?xml version="1.0" encoding="utf-8"?>
<!-- Generator: Adobe Illustrator 15.0.0, SVG Export Plug-In  -->
<!DOCTYPE svg PUBLIC "-//W3C//DTD SVG 1.1//EN" "http://www.w3.org/Graphics/SVG/1.1/DTD/svg11.dtd" [
	<!ENTITY ns_flows "http://ns.adobe.com/Flows/1.0/">
]>
<svg version="1.1"
	 xmlns="http://www.w3.org/2000/svg" xmlns:xlink="http://www.w3.org/1999/xlink" xmlns:a="http://ns.adobe.com/AdobeSVGViewerExtensions/3.0/"
	 x="0px" y="0px" width="50px" height="50px" viewBox="-9.75 -13.648 50 50" enable-background="new -9.75 -13.648 50 50"
	 xml:space="preserve">
<defs>
</defs>
<polygon fill="#FFFFFF" points="13.026,14.225 10.728,14.225 0,14.225 0,17.192 10.728,17.192 13.026,17.192 31.502,17.192 
	31.502,14.225 "/>
<polygon fill="#FFFFFF" points="13.026,7.113 10.728,7.113 0,7.113 0,10.08 10.728,10.08 13.026,10.08 31.502,10.08 31.502,7.113 
	"/>
<polygon fill="#FFFFFF" points="13.026,0 10.728,0 0,0 0,2.967 10.728,2.967 13.026,2.967 31.502,2.967 31.502,0 "/>
<polygon fill="#FFFFFF" points="13.026,21.338 10.728,21.338 0,21.338 0,24.305 10.728,24.305 13.026,24.305 31.502,24.305 
	31.502,21.338 "/>
</svg>
