<?xml version="1.0" encoding="utf-8"?>
<!-- Generator: Adobe Illustrator 15.0.0, SVG Export Plug-In . SVG Version: 6.00 Build 0)  -->
<!DOCTYPE svg PUBLIC "-//W3C//DTD SVG 1.1//EN" "http://www.w3.org/Graphics/SVG/1.1/DTD/svg11.dtd">
<svg version="1.1" id="Layer_1" xmlns="http://www.w3.org/2000/svg" xmlns:xlink="http://www.w3.org/1999/xlink" x="0px" y="0px"
	 width="116.325px" height="18.025px" viewBox="0 0 116.325 18.025" enable-background="new 0 0 116.325 18.025"
	 xml:space="preserve">
<g>
	<g>
		<polygon fill="#909090" points="41.192,7.496 39.879,7.496 33.739,7.496 33.739,10.53 39.879,10.53 41.192,10.53 51.766,10.53 
			51.766,7.496 		"/>
		<polygon fill="#909090" points="41.192,0.22 39.879,0.22 33.739,0.22 33.739,3.255 39.879,3.255 41.192,3.255 51.766,3.255 
			51.766,0.22 		"/>
		<polygon fill="#909090" points="41.192,14.77 39.879,14.77 33.739,14.77 33.739,17.805 39.879,17.805 41.192,17.805 
			51.766,17.805 51.766,14.77 		"/>
	</g>
</g>
<g>
	<g>
		<rect x="0.052" fill="#909090" width="7.623" height="7.622"/>
		<rect x="10.455" y="10.403" fill="#909090" width="7.623" height="7.623"/>
		<rect x="10.353" fill="#909090" width="7.623" height="7.622"/>
		<rect y="10.352" fill="#909090" width="7.623" height="7.623"/>
	</g>
</g>
<rect x="66.137" fill="#909090" width="18.025" height="18.025"/>
<path fill="#F6F6F5" d="M75.148,2.964c-1.834,0-3.319,1.487-3.319,3.32s3.319,8.709,3.319,8.709s3.318-6.876,3.318-8.709
	S76.982,2.964,75.148,2.964z M75.146,7.496c-0.646,0-1.168-0.523-1.168-1.168s0.522-1.168,1.168-1.168
	c0.646,0,1.168,0.523,1.168,1.168S75.793,7.496,75.146,7.496z"/>
<g>
	<g>
		<g>
			<g>
				<path fill="#909090" d="M116.325,10.641h-7.468v7.466h-3.146v-7.466h-7.484V7.529h7.484V0.046h3.146v7.483h7.468V10.641z"/>
			</g>
		</g>
	</g>
</g>
</svg>
