<?xml version="1.0" encoding="utf-8"?>
<!-- Generator: Adobe Illustrator 15.0.0, SVG Export Plug-In  -->
<!DOCTYPE svg PUBLIC "-//W3C//DTD SVG 1.1//EN" "http://www.w3.org/Graphics/SVG/1.1/DTD/svg11.dtd" [
	<!ENTITY ns_flows "http://ns.adobe.com/Flows/1.0/">
]>
<svg version="1.1"
	 xmlns="http://www.w3.org/2000/svg" xmlns:xlink="http://www.w3.org/1999/xlink" xmlns:a="http://ns.adobe.com/AdobeSVGViewerExtensions/3.0/"
	 x="0px" y="0px" width="146px" height="18px" viewBox="0 0 146 18" enable-background="new 0 0 146 18" xml:space="preserve">
<defs>
</defs>
<polygon fill="#909090" points="41.192,7.496 39.879,7.496 33.739,7.496 33.739,10.53 39.879,10.53 41.192,10.53 51.766,10.53 
	51.766,7.496 "/>
<polygon fill="#909090" points="41.192,0.22 39.879,0.22 33.739,0.22 33.739,3.255 39.879,3.255 41.192,3.255 51.766,3.255 
	51.766,0.22 "/>
<polygon fill="#909090" points="41.192,14.77 39.879,14.77 33.739,14.77 33.739,17.805 39.879,17.805 41.192,17.805 51.766,17.805 
	51.766,14.77 "/>
<rect x="0.052" fill="#909090" width="7.623" height="7.622"/>
<rect x="10.455" y="10.403" fill="#909090" width="7.623" height="7.623"/>
<rect x="10.353" fill="#909090" width="7.623" height="7.622"/>
<rect y="10.352" fill="#909090" width="7.623" height="7.623"/>
<rect x="66.137" fill="#909090" width="18.025" height="18.025"/>
<path fill="#F6F6F5" d="M75.148,2.964c-1.834,0-3.319,1.487-3.319,3.32s3.319,8.709,3.319,8.709s3.318-6.876,3.318-8.709
	S76.982,2.964,75.148,2.964z M75.146,7.496c-0.646,0-1.168-0.523-1.168-1.168s0.522-1.168,1.168-1.168
	c0.646,0,1.168,0.523,1.168,1.168S75.793,7.496,75.146,7.496z"/>
<path fill="#909090" d="M116.325,10.641h-7.468v7.466h-3.146v-7.466h-7.484V7.529h7.484V0.046h3.146v7.483h7.468V10.641z"/>
<path fill="#909090" d="M139.062,9.952c0.702-1.019,1.115-2.252,1.115-3.583c0-3.491-2.831-6.322-6.322-6.322
	c-3.492,0-6.323,2.831-6.323,6.322c0,3.492,2.831,6.323,6.323,6.323c1.331,0,2.564-0.413,3.583-1.116l6.476,6.476l1.624-1.624
	L139.062,9.952z M133.859,10.849c-2.475,0-4.481-2.006-4.481-4.481c0-2.476,2.007-4.482,4.481-4.482
	c2.476,0,4.481,2.007,4.481,4.482C138.341,8.843,136.335,10.849,133.859,10.849z"/>
</svg>
