<?xml version="1.0" encoding="utf-8"?>
<!-- Generator: Adobe Illustrator 15.0.0, SVG Export Plug-In  -->
<!DOCTYPE svg PUBLIC "-//W3C//DTD SVG 1.1//EN" "http://www.w3.org/Graphics/SVG/1.1/DTD/svg11.dtd" [
	<!ENTITY ns_flows "http://ns.adobe.com/Flows/1.0/">
]>
<svg version="1.1"
	 xmlns="http://www.w3.org/2000/svg" xmlns:xlink="http://www.w3.org/1999/xlink" xmlns:a="http://ns.adobe.com/AdobeSVGViewerExtensions/3.0/"
	 x="0px" y="0px" width="17px" height="17px" viewBox="0 0 17 17" enable-background="new 0 0 17 17" xml:space="preserve">
<defs>
</defs>
<path fill="#FFFFFF" d="M8.307,16.612c-1.126,0-2.213-0.221-3.229-0.656c-1.021-0.438-1.912-1.032-2.65-1.771
	c-0.738-0.738-1.333-1.631-1.769-2.652C0.222,10.513,0,9.427,0,8.306c0-1.126,0.222-2.213,0.658-3.23
	c0.436-1.019,1.03-1.91,1.769-2.649c0.739-0.739,1.631-1.334,2.649-1.77C6.094,0.221,7.181,0,8.307,0
	c1.119,0,2.205,0.221,3.227,0.657c1.023,0.437,1.916,1.033,2.653,1.77c0.735,0.736,1.331,1.627,1.771,2.648
	c0.435,1.017,0.655,2.104,0.655,3.23c0,1.121-0.221,2.207-0.655,3.226c-0.439,1.023-1.035,1.916-1.771,2.653
	c-0.736,0.736-1.629,1.331-2.654,1.77C10.512,16.392,9.426,16.612,8.307,16.612z M8.307,1.726c-0.886,0-1.745,0.176-2.555,0.521
	C4.944,2.592,4.236,3.063,3.649,3.65C3.064,4.236,2.593,4.943,2.248,5.75C1.902,6.56,1.727,7.42,1.727,8.306
	s0.176,1.746,0.521,2.555c0.345,0.808,0.816,1.515,1.401,2.101c0.587,0.586,1.294,1.059,2.104,1.402
	c0.808,0.346,1.667,0.521,2.554,0.521c0.885,0,1.744-0.176,2.554-0.521c0.81-0.344,1.517-0.816,2.104-1.402
	c0.585-0.586,1.057-1.293,1.401-2.101c0.346-0.81,0.521-1.669,0.521-2.555S14.711,6.56,14.365,5.75
	c-0.345-0.808-0.816-1.514-1.401-2.1c-0.587-0.587-1.295-1.059-2.104-1.403C10.049,1.902,9.189,1.726,8.307,1.726z M7.312,12.314
	V7.284h2v5.031H7.312z M8.307,6.166c-0.331,0-0.599-0.087-0.795-0.26c-0.188-0.167-0.28-0.391-0.28-0.683
	c0-0.287,0.092-0.507,0.281-0.674c0.197-0.175,0.457-0.26,0.794-0.26c0.338,0,0.606,0.086,0.797,0.255
	C9.291,4.71,9.382,4.932,9.382,5.223c0,0.292-0.091,0.516-0.279,0.684C8.911,6.079,8.644,6.166,8.307,6.166z"/>
</svg>
