<?xml version="1.0" encoding="utf-8"?>
<!-- Generator: Adobe Illustrator 15.0.0, SVG Export Plug-In  -->
<!DOCTYPE svg PUBLIC "-//W3C//DTD SVG 1.1//EN" "http://www.w3.org/Graphics/SVG/1.1/DTD/svg11.dtd" [
	<!ENTITY ns_flows "http://ns.adobe.com/Flows/1.0/">
]>
<svg version="1.1"
	 xmlns="http://www.w3.org/2000/svg" xmlns:xlink="http://www.w3.org/1999/xlink" xmlns:a="http://ns.adobe.com/AdobeSVGViewerExtensions/3.0/"
	 x="0px" y="0px" width="400px" height="400px" viewBox="-0.234 -0.77 400 400" enable-background="new -0.234 -0.77 400 400"
	 xml:space="preserve">
<defs>
</defs>
<rect fill="#F1F0EE" width="399.766" height="398.71"/>
<circle fill="#D5D5D5" cx="201.918" cy="199.819" r="25.395"/>
<path fill="#D5D5D5" d="M239.547,159.855l-7.256-19h-58.693l-7.719,19h-10.996v-9.5h-16v13.489l-11,3.511v74.5h144v-82H239.547z
	 M201.918,236.855c-20.454,0-37.035-16.582-37.035-37.036s16.581-37.035,37.035-37.035c20.455,0,37.036,16.581,37.036,37.035
	S222.373,236.855,201.918,236.855z"/>
<polygon fill="#D5D5D5" points="3.324,2.115 2.643,2.115 2.643,2.847 128.026,128.23 129.44,128.23 "/>
<polygon fill="#D5D5D5" points="397.123,2.822 397.123,2.115 396.416,2.115 270.301,128.23 271.715,128.23 "/>
<polygon fill="#D5D5D5" points="396.441,396.595 397.123,396.595 397.123,395.863 271.739,270.48 270.325,270.48 "/>
<polygon fill="#D5D5D5" points="2.643,395.888 2.643,396.595 3.35,396.595 129.465,270.48 128.051,270.48 "/>
<circle fill="#F1F0EE" cx="191.419" cy="191.355" r="8.464"/>
<circle fill="#F1F0EE" cx="212.304" cy="191.355" r="8.464"/>
<path fill="#F1F0EE" d="M201.919,213.748c4.123,0,11.561,1.805,11.561,4.03l0,0c0-3.446-5.176-6.24-11.561-6.24
	s-11.561,2.794-11.561,6.24l0,0C190.358,215.552,197.796,213.748,201.919,213.748z"/>
<circle fill="#D5D5D5" cx="212.304" cy="195.022" r="3.307"/>
<circle fill="#D5D5D5" cx="191.419" cy="195.022" r="3.307"/>
<rect x="208.553" y="182.214" transform="matrix(0.9232 0.3844 -0.3844 0.9232 87.4042 -68.5628)" fill="#D5D5D5" width="13.333" height="4.313"/>
<rect x="181.804" y="182.214" transform="matrix(-0.9232 0.3844 -0.3844 -0.9232 433.331 282.1299)" fill="#D5D5D5" width="13.333" height="4.313"/>
</svg>
