<?xml version="1.0" encoding="utf-8"?>
<!-- Generator: Adobe Illustrator 15.0.0, SVG Export Plug-In  -->
<!DOCTYPE svg PUBLIC "-//W3C//DTD SVG 1.1//EN" "http://www.w3.org/Graphics/SVG/1.1/DTD/svg11.dtd" [
	<!ENTITY ns_flows "http://ns.adobe.com/Flows/1.0/">
]>
<svg version="1.1"
	 xmlns="http://www.w3.org/2000/svg" xmlns:xlink="http://www.w3.org/1999/xlink" xmlns:a="http://ns.adobe.com/AdobeSVGViewerExtensions/3.0/"
	 x="0px" y="0px" width="50px" height="50px" viewBox="-8.615 -6.903 50 50" enable-background="new -8.615 -6.903 50 50"
	 xml:space="preserve">
<defs>
</defs>
<path fill="#FFFFFF" d="M28.821,27.431c-1.931-1.083-4.419-2.597-7.236-3.551c-0.399-0.135-0.607-0.796-0.771-1.712
	c-0.119-0.661,0.208-1.455,0.619-2.279c2.313-2.42,3.833-6.286,3.833-9.769C25.266,4.531,21.351,0,16.521,0
	c-4.828,0-8.742,4.531-8.742,10.12c0,3.214,1.295,6.753,3.313,9.183c0.537,1.142,1.128,2.275,0.936,3.146
	c-0.18,0.817-0.404,1.402-0.786,1.54c-2.575,0.926-4.865,2.297-6.696,3.266C1.729,28.745,0,30.76,0,32.979
	c0,2.791,5.131,2.137,14.256,2.137c9.124,0,18.787,0.523,18.787-2.137C33.043,30.847,31.447,28.902,28.821,27.431z"/>
</svg>
